<svg width="16" height="12" viewBox="0 0 16 12" fill="none" xmlns="http://www.w3.org/2000/svg">
<path d="M14.9086 5.67589L10.3618 1.10688C10.2903 1.03752 10.1946 0.999147 10.0953 1.00001C9.99594 1.00088 9.9009 1.04092 9.83065 1.11152C9.7604 1.18211 9.72056 1.27761 9.71969 1.37744C9.71883 1.47727 9.75702 1.57345 9.82604 1.64526L13.7257 5.56395L1.3789 5.56395C1.27841 5.56395 1.18203 5.60406 1.11098 5.67547C1.03992 5.74687 1 5.84372 1 5.9447C1 6.04568 1.03992 6.14252 1.11098 6.21393C1.18203 6.28533 1.27841 6.32545 1.3789 6.32545L13.7257 6.32545L9.82604 10.2441C9.75499 10.3156 9.71512 10.4126 9.71519 10.5136C9.71526 10.6146 9.75527 10.7115 9.82642 10.7829C9.89756 10.8543 9.99402 10.8944 10.0946 10.8943C10.1951 10.8942 10.2915 10.854 10.3626 10.7825L14.9093 6.21351C14.9804 6.14211 15.0203 6.04528 15.0203 5.94432C15.0203 5.84336 14.9804 5.74653 14.9093 5.67513L14.9086 5.67589Z" fill="black" stroke="white"/>
</svg>
